<?xml version="1.0" encoding="UTF-8" standalone="no"?>
<svg
   width="13"
   height="7"
   viewBox="0 0 13 7"
   fill="none"
   stroke="currentColor"
   stroke-width="2"
   stroke-linecap="round"
   stroke-linejoin="round"
   class="lucide lucide-circle-dot-icon lucide-circle-dot"
   version="1.1"
   id="svg2"
   sodipodi:docname="circle-dot-start.svg"
   xml:space="preserve"
   inkscape:version="1.4.2 (ebf0e940d0, 2025-05-08)"
   xmlns:inkscape="http://www.inkscape.org/namespaces/inkscape"
   xmlns:sodipodi="http://sodipodi.sourceforge.net/DTD/sodipodi-0.dtd"
   xmlns="http://www.w3.org/2000/svg"
   xmlns:svg="http://www.w3.org/2000/svg"><defs
     id="defs2" /><sodipodi:namedview
     id="namedview2"
     pagecolor="#ffffff"
     bordercolor="#000000"
     borderopacity="0.25"
     inkscape:showpageshadow="2"
     inkscape:pageopacity="0.0"
     inkscape:pagecheckerboard="0"
     inkscape:deskcolor="#d1d1d1"
     showgrid="true"
     inkscape:zoom="33.333333"
     inkscape:cx="12"
     inkscape:cy="11.04"
     inkscape:window-width="1920"
     inkscape:window-height="1011"
     inkscape:window-x="0"
     inkscape:window-y="0"
     inkscape:window-maximized="1"
     inkscape:current-layer="svg2"><inkscape:grid
       id="grid3"
       units="px"
       originx="0"
       originy="0"
       spacingx="1"
       spacingy="1"
       empcolor="#0099e5"
       empopacity="0.30196078"
       color="#0099e5"
       opacity="0.14901961"
       empspacing="5"
       enabled="true"
       visible="true" /></sodipodi:namedview><g
     id="g1"
     style="fill:#315435;fill-opacity:1"><g
       id="g2"
       transform="matrix(0.22545512,0,0,0.22545512,0.79486719,0.77453865)"
       style="stroke-width:2.00115;stroke-dasharray:none;fill:#315435;fill-opacity:1"><path
         style="baseline-shift:baseline;display:inline;overflow:visible;vector-effect:none;fill:#315435;stroke:none;stroke-linecap:butt;stroke-linejoin:miter;enable-background:accumulate;stop-color:#000000;stop-opacity:1;opacity:1;fill-opacity:1"
         d="M 12,1 C 5.9364017,1 1,5.9364017 1,12 1,18.063598 5.9364017,23 12,23 18.063598,23 23,18.063598 23,12 23,5.9364017 18.063598,1 12,1 Z m 0,2 c 4.982097,0 9,4.0179033 9,9 0,4.982097 -4.017903,9 -9,9 C 7.0179033,21 3,16.982097 3,12 3,7.0179033 7.0179033,3 12,3 Z"
         id="circle1" /><path
         style="baseline-shift:baseline;display:inline;overflow:visible;vector-effect:none;fill:#315435;stroke:none;stroke-linecap:butt;stroke-linejoin:miter;enable-background:accumulate;stop-color:#000000;stop-opacity:1;opacity:1;fill-opacity:1"
         d="m 12,10 c -1.093036,0 -2,0.906964 -2,2 0,1.093036 0.906964,2 2,2 1.093036,0 2,-0.906964 2,-2 0,-1.093036 -0.906964,-2 -2,-2 z"
         id="circle2" /></g><g
       style="fill:#315435;stroke:currentColor;stroke-width:1.38386744;stroke-linecap:round;stroke-linejoin:round;stroke-dasharray:none;fill-opacity:1"
       id="g3"
       transform="matrix(0.31000079,0,0,0.31000079,5.6346121,-0.20724032)"><path
         style="baseline-shift:baseline;display:inline;overflow:visible;vector-effect:none;fill:#315435;stroke:none;stroke-linecap:butt;stroke-linejoin:miter;enable-background:accumulate;stop-color:#000000;stop-opacity:1;opacity:1;fill-opacity:1"
         d="M 5,11.308594 A 0.69193369,0.69193369 0 0 0 4.3085937,12 0.69193369,0.69193369 0 0 0 5,12.691406 H 19 A 0.69193369,0.69193369 0 0 0 19.691406,12 0.69193369,0.69193369 0 0 0 19,11.308594 Z"
         id="path1" /><path
         style="baseline-shift:baseline;display:inline;overflow:visible;vector-effect:none;fill:#315435;stroke:none;stroke-linecap:butt;stroke-linejoin:miter;enable-background:accumulate;stop-color:#000000;stop-opacity:1;opacity:1;fill-opacity:1"
         d="m 12,4.3085937 a 0.69193369,0.69193369 0 0 0 -0.490234,0.2011719 0.69193369,0.69193369 0 0 0 0,0.9804688 L 18.019531,12 11.509766,18.509766 a 0.69193369,0.69193369 0 0 0 0,0.980468 0.69193369,0.69193369 0 0 0 0.980468,0 l 7,-7 a 0.69200288,0.69200288 0 0 0 0,-0.980468 l -7,-7.0000004 A 0.69193369,0.69193369 0 0 0 12,4.3085937 Z"
         id="path2" /></g></g></svg>
