<?xml version="1.0" encoding="UTF-8" standalone="no"?>
<svg
   width="130"
   height="70"
   viewBox="0 0 13 7"
   fill="none"
   stroke="currentColor"
   stroke-width="2"
   stroke-linecap="round"
   stroke-linejoin="round"
   class="lucide lucide-circle-dot-icon lucide-circle-dot"
   version="1.1"
   id="svg2"
   sodipodi:docname="circle-dot-end.svg"
   xml:space="preserve"
   inkscape:version="1.4.2 (ebf0e940d0, 2025-05-08)"
   inkscape:export-filename="circle-dot-end.svg"
   inkscape:export-xdpi="96"
   inkscape:export-ydpi="96"
   xmlns:inkscape="http://www.inkscape.org/namespaces/inkscape"
   xmlns:sodipodi="http://sodipodi.sourceforge.net/DTD/sodipodi-0.dtd"
   xmlns="http://www.w3.org/2000/svg"
   xmlns:svg="http://www.w3.org/2000/svg"><defs
     id="defs2" /><sodipodi:namedview
     id="namedview2"
     pagecolor="#ffffff"
     bordercolor="#000000"
     borderopacity="0.25"
     inkscape:showpageshadow="2"
     inkscape:pageopacity="0.0"
     inkscape:pagecheckerboard="0"
     inkscape:deskcolor="#d1d1d1"
     showgrid="true"
     inkscape:zoom="2.9462782"
     inkscape:cx="60.075793"
     inkscape:cy="32.413775"
     inkscape:window-width="1078"
     inkscape:window-height="812"
     inkscape:window-x="26"
     inkscape:window-y="23"
     inkscape:window-maximized="0"
     inkscape:current-layer="svg2"><inkscape:grid
       id="grid3"
       units="px"
       originx="0"
       originy="0"
       spacingx="1"
       spacingy="1"
       empcolor="#0099e5"
       empopacity="0.30196078"
       color="#0099e5"
       opacity="0.14901961"
       empspacing="5"
       enabled="true"
       visible="true" /></sodipodi:namedview><path
     style="baseline-shift:baseline;display:inline;overflow:visible;vector-effect:none;fill:#315435;stroke:none;stroke-width:0.451169;stroke-linecap:butt;stroke-linejoin:miter;stroke-dasharray:none;stroke-opacity:1;enable-background:accumulate;stop-color:#000000"
     d="m 9.3803286,1.0299938 c -1.3670692,0 -2.4800063,1.112937 -2.4800063,2.4800063 0,1.3670692 1.1129371,2.4800063 2.4800063,2.4800063 1.3670694,0 2.4800064,-1.1129371 2.4800064,-2.4800063 0,-1.3670693 -1.112937,-2.4800063 -2.4800064,-2.4800063 z m 0,0.4509102 c 1.1232394,0 2.0290964,0.9058569 2.0290964,2.0290961 0,1.1232393 -0.905857,2.0290961 -2.0290964,2.0290961 -1.1232392,0 -2.029096,-0.9058568 -2.029096,-2.0290961 0,-1.1232392 0.9058568,-2.0290961 2.029096,-2.0290961 z"
     id="circle1" /><path
     style="baseline-shift:baseline;display:inline;overflow:visible;vector-effect:none;fill:#315435;stroke:none;stroke-width:0.451169;stroke-linecap:butt;stroke-linejoin:miter;stroke-dasharray:none;stroke-opacity:1;enable-background:accumulate;stop-color:#000000"
     d="m 9.3803286,3.0590899 c -0.2464305,0 -0.4509102,0.2044796 -0.4509102,0.4509102 0,0.2464306 0.2044797,0.4509102 0.4509102,0.4509102 0.2464306,0 0.4509103,-0.2044796 0.4509103,-0.4509102 0,-0.2464306 -0.2044797,-0.4509102 -0.4509103,-0.4509102 z"
     id="circle2" /><path
     style="baseline-shift:baseline;display:inline;overflow:visible;vector-effect:none;fill:#315435;stroke:none;stroke-width:0.429233;stroke-linecap:butt;stroke-linejoin:miter;stroke-dasharray:none;stroke-opacity:1;enable-background:accumulate;stop-color:#000000"
     d="M 1.3346159,3.2384328 A 0.21461664,0.21461664 0 0 0 1.1202794,3.4527692 0.21461664,0.21461664 0 0 0 1.3346159,3.6671056 H 5.674627 A 0.21461664,0.21461664 0 0 0 5.8889634,3.4527692 0.21461664,0.21461664 0 0 0 5.674627,3.2384328 Z"
     id="path1" /><path
     style="baseline-shift:baseline;display:inline;overflow:visible;vector-effect:none;fill:#315435;stroke:none;stroke-width:0.429233;stroke-linecap:butt;stroke-linejoin:miter;stroke-dasharray:none;stroke-opacity:1;enable-background:accumulate;stop-color:#000000"
     d="m 3.3526485,1.1307906 a 0.21461664,0.21461664 0 0 0 0,0.3039461 L 5.3706808,3.4527692 3.3526485,5.4708018 a 0.21461664,0.21461664 0 0 0 0,0.3039458 0.21461664,0.21461664 0 0 0 0.3039459,0 L 5.8265999,3.6047421 a 0.2146381,0.2146381 0 0 0 0,-0.3039459 L 3.6565944,1.1307906 a 0.21461664,0.21461664 0 0 0 -0.3039459,0 z"
     id="path2" /></svg>
