<?xml version="1.0" encoding="UTF-8" standalone="no"?>
<svg
   width="130"
   height="70"
   viewBox="0 0 13 7"
   fill="none"
   stroke="currentColor"
   stroke-width="2"
   stroke-linecap="round"
   stroke-linejoin="round"
   class="lucide lucide-circle-dot-icon lucide-circle-dot"
   version="1.1"
   id="svg2"
   xml:space="preserve"
   xmlns="http://www.w3.org/2000/svg"
   xmlns:svg="http://www.w3.org/2000/svg"><defs
     id="defs2" /><path
     style="baseline-shift:baseline;display:inline;overflow:visible;vector-effect:none;fill:#315435;stroke:none;stroke-width:0.451169;stroke-linecap:butt;stroke-linejoin:miter;stroke-dasharray:none;stroke-opacity:1;enable-background:accumulate;stop-color:#000000"
     d="m 3.4406315,0.99605268 c -1.3670692,0 -2.48000628,1.11293702 -2.48000628,2.48000632 0,1.3670692 1.11293708,2.4800063 2.48000628,2.4800063 1.3670694,0 2.4800064,-1.1129371 2.4800064,-2.4800063 0,-1.3670693 -1.112937,-2.48000632 -2.4800064,-2.48000632 z m 0,0.45091022 c 1.1232394,0 2.0290964,0.9058569 2.0290964,2.0290961 0,1.1232393 -0.905857,2.0290961 -2.0290964,2.0290961 -1.1232392,0 -2.029096,-0.9058568 -2.029096,-2.0290961 0,-1.1232392 0.9058568,-2.0290961 2.029096,-2.0290961 z"
     id="circle1" /><path
     style="baseline-shift:baseline;display:inline;overflow:visible;vector-effect:none;fill:#315435;stroke:none;stroke-width:0.451169;stroke-linecap:butt;stroke-linejoin:miter;stroke-dasharray:none;stroke-opacity:1;enable-background:accumulate;stop-color:#000000"
     d="m 3.4406315,3.0251488 c -0.2464305,0 -0.4509102,0.2044796 -0.4509102,0.4509102 0,0.2464306 0.2044797,0.4509102 0.4509102,0.4509102 0.2464306,0 0.4509103,-0.2044796 0.4509103,-0.4509102 0,-0.2464306 -0.2044797,-0.4509102 -0.4509103,-0.4509102 z"
     id="circle2" /><path
     style="baseline-shift:baseline;display:inline;overflow:visible;vector-effect:none;fill:#315435;stroke:none;stroke-width:0.429233;stroke-linecap:butt;stroke-linejoin:miter;stroke-dasharray:none;stroke-opacity:1;enable-background:accumulate;stop-color:#000000"
     d="M 7.3421952,3.2723739 A 0.21461664,0.21461664 0 0 0 7.1278587,3.4867103 0.21461664,0.21461664 0 0 0 7.3421952,3.7010467 H 11.682206 A 0.21461664,0.21461664 0 0 0 11.896543,3.4867103 0.21461664,0.21461664 0 0 0 11.682206,3.2723739 Z"
     id="path1" /><path
     style="baseline-shift:baseline;display:inline;overflow:visible;vector-effect:none;fill:#315435;stroke:none;stroke-width:0.429233;stroke-linecap:butt;stroke-linejoin:miter;stroke-dasharray:none;stroke-opacity:1;enable-background:accumulate;stop-color:#000000"
     d="m 9.3602278,1.1647317 a 0.21461664,0.21461664 0 0 0 0,0.3039461 L 11.37826,3.4867103 9.3602278,5.5047429 a 0.21461664,0.21461664 0 0 0 0,0.3039458 0.21461664,0.21461664 0 0 0 0.3039459,0 L 11.834179,3.6386832 a 0.2146381,0.2146381 0 0 0 0,-0.3039459 L 9.6641737,1.1647317 a 0.21461664,0.21461664 0 0 0 -0.3039459,0 z"
     id="path2" /></svg>
