<?xml version="1.0" encoding="UTF-8" standalone="no"?>
<svg
   version="1.0"
   width="217.51222pt"
   height="41.461456pt"
   viewBox="0 0 217.51222 41.461456"
   preserveAspectRatio="xMidYMid"
   id="svg8"
   xmlns="http://www.w3.org/2000/svg"
   xmlns:svg="http://www.w3.org/2000/svg">
  <defs
     id="defs8" />
  <metadata
     id="metadata1">
Created by potrace 1.16, written by Peter Selinger 2001-2019
</metadata>
  <g
     transform="matrix(0.02415997,0,0,-0.02415997,-12.563184,58.166013)"
     id="g8">
    <path
       d="m 6260,2393 c -101,-53 -109,-207 -13,-270 40,-26 142,-25 180,3 82,60 83,197 1,257 -38,28 -123,33 -168,10 z"
       id="path1" />
    <path
       d="m 7922,2083 4,-318 -61,62 c -52,52 -72,64 -129,82 -119,37 -281,24 -387,-30 -54,-27 -121,-90 -158,-147 -116,-182 -129,-569 -26,-787 83,-175 244,-267 439,-252 111,8 180,39 254,114 35,34 65,63 67,63 2,0 12,-36 21,-80 l 17,-80 h 94 93 v 845 845 h -116 -116 z m -197,-354 c 87,-22 158,-113 183,-234 43,-210 14,-431 -71,-531 -68,-80 -226,-104 -339,-52 -113,53 -162,169 -162,383 0,190 30,291 110,372 65,65 173,89 279,62 z"
       id="path2" />
    <path
       d="m 527,2293 c -4,-3 -7,-361 -7,-795 V 710 h 475 475 V 815 920 H 1110 750 v 255 255 h 340 340 v 105 105 H 1090 750 v 225 225 h 360 360 v 105 105 h -468 c -258,0 -472,-3 -475,-7 z"
       id="path3" />
    <path
       d="M 4520,1500 V 710 h 115 115 v 315 315 h 108 108 l 180,-312 181,-313 126,-3 c 70,-1 127,0 127,2 0,3 -90,156 -200,341 -110,185 -200,340 -200,344 0,4 17,15 38,25 111,53 196,153 227,269 13,49 16,91 13,173 -3,97 -7,116 -35,176 -39,84 -99,142 -188,185 -110,52 -191,63 -471,63 h -244 z m 502,579 c 145,-31 201,-102 200,-256 0,-65 -5,-92 -25,-136 -47,-103 -120,-137 -314,-144 l -133,-6 v 277 276 h 110 c 60,0 133,-5 162,-11 z"
       id="path4" />
    <path
       d="m 2251,1914 c -152,-32 -274,-119 -339,-241 -65,-123 -93,-311 -72,-488 38,-322 201,-475 520,-492 114,-6 240,11 340,45 l 55,19 3,107 3,107 -30,-15 c -118,-62 -353,-80 -462,-38 -104,41 -167,129 -188,262 -31,193 11,384 102,466 72,65 116,79 252,78 105,0 130,-3 198,-28 43,-15 80,-26 82,-24 9,9 63,173 59,179 -8,14 -118,51 -192,65 -92,17 -247,17 -331,-2 z"
       id="path5" />
    <path
       d="m 3492,1910 c -264,-69 -405,-301 -389,-640 9,-188 54,-313 154,-420 189,-205 580,-212 778,-15 70,71 130,191 151,305 23,118 15,318 -16,415 -76,242 -266,376 -530,374 -41,0 -108,-9 -148,-19 z m 293,-198 c 58,-29 119,-99 143,-164 58,-156 47,-402 -23,-524 -70,-120 -210,-171 -352,-129 -95,28 -171,121 -201,245 -30,126 -22,295 19,405 33,90 112,165 194,186 54,15 176,4 220,-19 z"
       id="path6" />
    <path
       d="m 8880,1919 c -135,-22 -294,-137 -358,-257 -61,-115 -77,-191 -76,-357 0,-134 3,-158 27,-230 33,-100 95,-195 161,-247 182,-145 482,-178 758,-82 l 78,27 v 99 c 0,54 -3,98 -6,98 -3,0 -44,-14 -91,-30 -243,-86 -462,-72 -583,36 -71,64 -97,122 -114,247 l -5,37 h 426 426 l -6,118 c -11,199 -56,320 -156,416 -121,115 -284,157 -481,125 z m 255,-203 c 28,-13 62,-36 77,-52 36,-38 68,-112 75,-174 l 6,-50 h -307 c -247,0 -306,3 -306,13 0,24 33,111 56,148 31,49 98,105 148,123 22,8 77,15 121,15 64,1 90,-4 130,-23 z"
       id="path7" />
    <path
       d="m 5854,1897 c -3,-8 -4,-45 -2,-83 l 3,-69 155,-13 c 85,-7 170,-15 188,-18 l 32,-5 V 1307 904 l -187,-18 c -104,-9 -198,-20 -210,-23 -21,-5 -23,-11 -23,-79 v -74 h 520 520 v 74 c 0,63 -3,75 -17,80 -10,2 -96,12 -190,22 l -173,18 -2,500 -3,501 -303,3 c -248,2 -303,0 -308,-11 z"
       id="path8" />
  </g>
</svg>
