<?xml version="1.0" encoding="UTF-8" standalone="no"?>
<svg
   version="1.0"
   width="57.385574pt"
   height="43.697258pt"
   viewBox="0 0 57.385573 43.697257"
   preserveAspectRatio="xMidYMid"
   id="svg8"
   xml:space="preserve"
   sodipodi:docname="fav-ecoride.svg"
   inkscape:version="1.4.2 (ebf0e940d0, 2025-05-08)"
   xmlns:inkscape="http://www.inkscape.org/namespaces/inkscape"
   xmlns:sodipodi="http://sodipodi.sourceforge.net/DTD/sodipodi-0.dtd"
   xmlns="http://www.w3.org/2000/svg"
   xmlns:svg="http://www.w3.org/2000/svg"><sodipodi:namedview
     id="namedview1"
     pagecolor="#ffffff"
     bordercolor="#000000"
     borderopacity="0.25"
     inkscape:showpageshadow="2"
     inkscape:pageopacity="0.0"
     inkscape:pagecheckerboard="0"
     inkscape:deskcolor="#d1d1d1"
     inkscape:document-units="pt"
     inkscape:zoom="7.8340032"
     inkscape:cx="33.188651"
     inkscape:cy="22.466164"
     inkscape:window-width="1920"
     inkscape:window-height="1011"
     inkscape:window-x="0"
     inkscape:window-y="0"
     inkscape:window-maximized="1"
     inkscape:current-layer="g8" /><defs
     id="defs8" /><metadata
     id="metadata1">
Created by potrace 1.16, written by Peter Selinger 2001-2019
</metadata><g
     transform="matrix(0.02415997,0,0,-0.02415997,-64.50422,54.760264)"
     id="g8"><path
       d="m 3103.9234,1930.1422 c -135,-22 -294,-137 -358,-257 -61,-115 -77,-191 -76,-357 0,-134 3,-158 27,-230 33,-99.99995 95,-194.99995 161,-246.99995 182,-144.99995 482,-177.99995 758,-82 l 30.7932,15.772 21.4794,11.0015 19.7835,22.7419 6.8649,32.8522 -0.921,43.6324 c -1.1396,53.9879 -24.7943,78.187 -27.7943,78.187 -3,0 -22.2057,5.813 -69.2057,-10.187 -243,-86 -462,-72 -583,36 -71,63.99995 -97,121.99995 -114,246.99995 l -2.5685,19.007 4.5031,13.5351 10.7317,4.4579 h 10.4019 397.9318 l 351.4946,-3.3474 21.6768,6.5012 19.3261,7.7821 12.0893,14.124 7.9047,16.2281 5.2792,24.9431 2.2293,51.7689 c -11,199 -56,320 -156,416 -121,115 -284,157 -481,125 z m 255,-203 c 28,-13 62,-36 77,-52 36,-38 68,-112 75,-174 l 2.6806,-43.9237 -0.1479,-10.5342 -5.9769,-10.822 -12.3925,-0.4399 -281.2007,1.8507 c -159.1883,1.0476 -239.4663,-1.301 -276.4257,-0.4261 -20.3863,0.4825 -22.6397,15.815 -22.6397,19.37 0,7.6454 -2.2076,10.0267 2.2779,29.8199 9.5952,42.3403 27.1518,100.892 42.8249,126.1053 31,49 98,105 148,123 22,8 77,15 121,15 64,1 90,-4 130,-23 z"
       id="path7"
       style="stroke-width:16.5563;stroke-dasharray:none;fill:#45d127;fill-opacity:1"
       sodipodi:nodetypes="ccccccccccssccccccccccccccccccccccccsssscccc" /><path
       d="m 4384.9361,457.90646 a 170.46576,170.46576 0 0 0 -71.4413,15.97674 164.28618,164.28618 0 0 0 -90.4325,197.5926 l 117.6373,389.3135 h -277.1758 a 226.08191,226.08191 0 0 0 -216.6624,291.5755 l 227.8905,753.6036 a 224.80077,224.80077 0 0 0 216.7373,160.5979 h 278.3071 a 195.93765,195.93765 0 0 0 183.3524,-264.5948 l -126.8318,-338.288 h 192.6972 a 226.08191,226.08191 0 0 0 187.1201,-352.9902 L 4523.8268,534.47876 a 165.7934,165.7934 0 0 0 -138.8907,-76.5723 z m -93.4469,1657.93914 a 75.360635,75.360635 0 0 1 -72.1958,-53.5061 l -227.8902,-753.6149 a 75.360635,75.360635 0 0 1 72.1206,-97.2146 h 378.6874 a 75.360635,75.360635 0 0 0 72.1194,-97.2147 L 4367.6041,628.82571 a 13.790996,13.790996 0 0 1 9.1184,-18.16158 14.167799,14.167799 0 0 1 20.2713,5.49623 l 482.3085,776.21454 a 75.360635,75.360635 0 0 1 5.8787,80.1113 73.778063,73.778063 0 0 1 -66.1669,40.4766 h -301.4426 a 75.360635,75.360635 0 0 0 -70.6128,101.812 l 165.0393,440.0998 a 45.216382,45.216382 0 0 1 -42.2017,60.971 z"
       id="path1"
       style="stroke-width:75.3611;fill:#45d127;fill-opacity:1" /></g></svg>
